<?xml version="1.0" encoding="utf-8"?>
<!-- Generator: Adobe Illustrator 25.2.0, SVG Export Plug-In . SVG Version: 6.00 Build 0)  -->
<svg version="1.1" id="Layer_1" xmlns="http://www.w3.org/2000/svg" xmlns:xlink="http://www.w3.org/1999/xlink" x="0px" y="0px"
	 viewBox="0 0 2000 2000" style="enable-background:new 0 0 2000 2000;" xml:space="preserve">
<style type="text/css">
	.st0{display:none;fill:#1A1A1A;}
	.st1{display:none;fill:#999999;}
	.st2{fill:url(#SVGID_1_);}
	.st3{fill:url(#SVGID_2_);}
	.st4{fill:url(#SVGID_3_);}
	.st5{fill:url(#SVGID_4_);}
	.st6{fill:url(#SVGID_5_);}
	.st7{fill:url(#SVGID_6_);}
	.st8{fill:url(#SVGID_7_);}
	.st9{fill:url(#SVGID_8_);}
	.st10{fill:url(#SVGID_9_);}
	.st11{fill:url(#SVGID_10_);}
	.st12{fill:url(#SVGID_11_);}
	.st13{fill:url(#SVGID_12_);}
	.st14{fill:url(#SVGID_13_);}
	.st15{fill:url(#SVGID_14_);}
	.st16{fill:url(#SVGID_15_);}
	.st17{fill:url(#SVGID_16_);}
	.st18{fill:url(#SVGID_17_);}
	.st19{fill:url(#SVGID_18_);}
	.st20{fill:url(#SVGID_19_);}
	.st21{fill:url(#SVGID_20_);}
	.st22{fill:url(#SVGID_21_);}
	.st23{fill:url(#SVGID_22_);}
	.st24{fill:url(#SVGID_23_);}
	.st25{fill:url(#SVGID_24_);}
	.st26{fill:url(#SVGID_25_);}
	.st27{fill:url(#SVGID_26_);}
	.st28{fill:url(#SVGID_27_);}
	.st29{fill:url(#SVGID_28_);}
	.st30{fill:url(#SVGID_29_);}
	.st31{fill:url(#SVGID_30_);}
	.st32{fill:url(#SVGID_31_);}
	.st33{fill:url(#SVGID_32_);}
	.st34{fill:url(#SVGID_33_);}
	.st35{fill:url(#SVGID_34_);}
	.st36{fill:url(#SVGID_35_);}
	.st37{fill:url(#SVGID_36_);}
	.st38{fill:url(#SVGID_37_);}
	.st39{fill:url(#SVGID_38_);}
	.st40{fill:url(#SVGID_39_);}
	.st41{fill:url(#SVGID_40_);}
	.st42{fill:url(#SVGID_41_);}
	.st43{fill:url(#SVGID_42_);}
	.st44{fill:url(#SVGID_43_);}
	.st45{fill:url(#SVGID_44_);}
	.st46{fill:url(#SVGID_45_);}
	.st47{fill:url(#SVGID_46_);}
	.st48{fill:url(#SVGID_47_);}
	.st49{fill:url(#SVGID_48_);}
	.st50{fill:url(#SVGID_49_);}
	.st51{fill:url(#SVGID_50_);}
</style>
<rect class="st0" width="2000" height="2000"/>
<g>
	<g>
		<linearGradient id="SVGID_1_" gradientUnits="userSpaceOnUse" x1="446.3896" y1="1194.6072" x2="1589.2373" y2="1323.7986">
			<stop  offset="0" style="stop-color:#7E00E2"/>
			<stop  offset="1" style="stop-color:#240838"/>
		</linearGradient>
		<path class="st2" d="M436.71,1247.8h-23.48l38.04-106.68h25.71l37.59,106.68h-24.22l-6.84-21.99h-39.37L436.71,1247.8z
			 M450.08,1207.39h27.19l-13.22-42.2h-0.3L450.08,1207.39z"/>
		<linearGradient id="SVGID_2_" gradientUnits="userSpaceOnUse" x1="446.6133" y1="1192.6287" x2="1589.4609" y2="1321.8202">
			<stop  offset="0" style="stop-color:#7E00E2"/>
			<stop  offset="1" style="stop-color:#240838"/>
		</linearGradient>
		<path class="st3" d="M607.58,1247.8h-21.4l-12.33-57.65h-0.3l-12.33,57.65h-21.4l-22.29-79.05h22.14l12.33,56.76h0.3l11.14-56.76
			h20.95l11.89,56.76h0.3l12.33-56.76h21.4L607.58,1247.8z"/>
		<linearGradient id="SVGID_3_" gradientUnits="userSpaceOnUse" x1="447.7634" y1="1182.4548" x2="1590.6111" y2="1311.6464">
			<stop  offset="0" style="stop-color:#7E00E2"/>
			<stop  offset="1" style="stop-color:#240838"/>
		</linearGradient>
		<path class="st4" d="M712.19,1224.63c-5.5,19.02-21.25,25.26-34.77,25.26c-22.29,0-39.38-10.7-39.38-43.24
			c0-9.51,3.27-39.97,37.89-39.97c15.6,0,37.15,7.43,37.15,43.53v3.71h-54.23c0.59,5.94,1.78,19.32,18.57,19.32
			c5.8,0,11.74-2.97,13.37-8.62H712.19z M691.68,1200.41c-1.19-12.78-9.36-16.64-16.05-16.64c-9.81,0-15.01,6.24-16.2,16.64H691.68z
			"/>
		<linearGradient id="SVGID_4_" gradientUnits="userSpaceOnUse" x1="448.8359" y1="1172.9673" x2="1591.6836" y2="1302.1588">
			<stop  offset="0" style="stop-color:#7E00E2"/>
			<stop  offset="1" style="stop-color:#240838"/>
		</linearGradient>
		<path class="st5" d="M774.59,1192.83c-0.89-5.05-2.67-10.4-13.97-10.4c-11.29,0-12.78,4.31-12.78,7.73
			c0,12.48,49.48,3.42,49.48,32.54c0,23.03-22.29,27.19-34.62,27.19c-17.98,0-37.44-6.24-38.04-27.34h21.4
			c0,6.69,4.16,11.59,17.24,11.59c10.7,0,13.22-5.2,13.22-8.17c0-13.22-49.03-3.27-49.03-32.84c0-11.59,7.28-26.45,31.95-26.45
			c15.45,0,33.88,3.86,35.51,26.15H774.59z"/>
		<linearGradient id="SVGID_5_" gradientUnits="userSpaceOnUse" x1="449.972" y1="1162.9175" x2="1592.8197" y2="1292.109">
			<stop  offset="0" style="stop-color:#7E00E2"/>
			<stop  offset="1" style="stop-color:#240838"/>
		</linearGradient>
		<path class="st6" d="M851.27,1249.89c-21.25,0-40.41-13.08-40.41-41.6s19.17-41.6,40.41-41.6c21.25,0,40.42,13.07,40.42,41.6
			S872.51,1249.89,851.27,1249.89z M851.27,1184.21c-16.05,0-19.02,13.97-19.02,24.07c0,10.1,2.97,24.07,19.02,24.07
			s19.02-13.97,19.02-24.07C870.28,1198.18,867.31,1184.21,851.27,1184.21z"/>
		<linearGradient id="SVGID_6_" gradientUnits="userSpaceOnUse" x1="451.3717" y1="1150.5348" x2="1594.2195" y2="1279.7263">
			<stop  offset="0" style="stop-color:#7E00E2"/>
			<stop  offset="1" style="stop-color:#240838"/>
		</linearGradient>
		<path class="st7" d="M1022.29,1247.8h-20.8v-47.99c0-11.74-5.2-15.6-11.29-15.6c-10.4,0-14.12,6.83-14.12,16.2v47.4h-20.8v-47.55
			c0-6.69,0-16.05-12.48-16.05c-9.81,0-12.93,6.83-12.93,15.45v48.14h-20.8v-79.05h19.91v11.59h0.3c2.67-5.2,8.47-13.67,22.44-13.67
			c11.44,0,16.64,4.16,21.99,12.63c2.67-3.86,8.47-12.63,21.1-12.63c15.45,0,27.49,9.06,27.49,26.45V1247.8z"/>
		<linearGradient id="SVGID_7_" gradientUnits="userSpaceOnUse" x1="452.8103" y1="1137.8088" x2="1595.658" y2="1267.0004">
			<stop  offset="0" style="stop-color:#7E00E2"/>
			<stop  offset="1" style="stop-color:#240838"/>
		</linearGradient>
		<path class="st8" d="M1112.18,1224.63c-5.5,19.02-21.25,25.26-34.77,25.26c-22.29,0-39.38-10.7-39.38-43.24
			c0-9.51,3.27-39.97,37.89-39.97c15.6,0,37.15,7.43,37.15,43.53v3.71h-54.23c0.59,5.94,1.78,19.32,18.57,19.32
			c5.79,0,11.74-2.97,13.37-8.62H1112.18z M1091.68,1200.41c-1.19-12.78-9.36-16.64-16.05-16.64c-9.81,0-15.01,6.24-16.2,16.64
			H1091.68z"/>
		<linearGradient id="SVGID_8_" gradientUnits="userSpaceOnUse" x1="455.3979" y1="1114.9193" x2="1598.2455" y2="1244.1107">
			<stop  offset="0" style="stop-color:#7E00E2"/>
			<stop  offset="1" style="stop-color:#240838"/>
		</linearGradient>
		<path class="st9" d="M1131.5,1141.12h51.86c26.15,0,32.84,16.34,32.84,27.34c0,15.3-8.62,19.61-13.07,21.84
			c13.07,4.9,16.49,15.3,16.49,25.85c0,8.47-3.57,16.49-9.21,21.99c-6.09,5.94-11.89,9.66-33.73,9.66h-45.17V1141.12z
			 M1152.9,1182.87h26.15c8.77,0,15.75-3.42,15.75-11.89c0-8.77-6.24-11.44-16.34-11.44h-25.56V1182.87z M1152.9,1229.38h27.34
			c10.85,0,17.09-4.75,17.09-15.6c0-9.36-8.02-12.93-16.05-12.93h-28.38V1229.38z"/>
		<linearGradient id="SVGID_9_" gradientUnits="userSpaceOnUse" x1="456.5594" y1="1104.6438" x2="1599.4071" y2="1233.8352">
			<stop  offset="0" style="stop-color:#7E00E2"/>
			<stop  offset="1" style="stop-color:#240838"/>
		</linearGradient>
		<path class="st10" d="M1261.51,1247.8h-20.8v-106.68h20.8V1247.8z"/>
		<linearGradient id="SVGID_10_" gradientUnits="userSpaceOnUse" x1="455.7692" y1="1111.634" x2="1598.6169" y2="1240.8254">
			<stop  offset="0" style="stop-color:#7E00E2"/>
			<stop  offset="1" style="stop-color:#240838"/>
		</linearGradient>
		<path class="st11" d="M1348.43,1232.35c0,9.36,2.08,11.44,4.61,12.33v3.12h-22.44c-1.19-3.71-1.48-4.9-1.93-9.36
			c-4.75,4.9-11.44,11.44-25.56,11.44c-11.89,0-24.07-6.69-24.07-23.03c0-15.45,9.81-23.33,23.03-25.26l18.72-2.82
			c3.27-0.45,7.28-1.78,7.28-6.24c0-8.77-8.32-9.21-13.67-9.21c-10.4,0-12.18,6.39-12.78,10.99h-20.06
			c2.38-24.22,19.17-27.64,35.36-27.64c11.14,0,31.5,3.42,31.5,22.88V1232.35z M1328.08,1209.32c-2.08,1.63-5.5,2.97-14.12,4.31
			c-7.73,1.34-14.12,3.27-14.12,11.89c0,7.28,5.65,9.51,9.66,9.51c9.21,0,18.57-5.94,18.57-15.6V1209.32z"/>
		<linearGradient id="SVGID_11_" gradientUnits="userSpaceOnUse" x1="456.8544" y1="1102.0347" x2="1599.702" y2="1231.2261">
			<stop  offset="0" style="stop-color:#7E00E2"/>
			<stop  offset="1" style="stop-color:#240838"/>
		</linearGradient>
		<path class="st12" d="M1390.19,1230.72h41.45v17.09h-68.35v-16.2l40.56-46.21h-37.74v-16.64h64.04v17.09L1390.19,1230.72z"/>
		<linearGradient id="SVGID_12_" gradientUnits="userSpaceOnUse" x1="457.9436" y1="1092.3995" x2="1600.7913" y2="1221.5911">
			<stop  offset="0" style="stop-color:#7E00E2"/>
			<stop  offset="1" style="stop-color:#240838"/>
		</linearGradient>
		<path class="st13" d="M1483.05,1249.89c-21.25,0-40.41-13.08-40.41-41.6s19.17-41.6,40.41-41.6c21.25,0,40.42,13.07,40.42,41.6
			S1504.3,1249.89,1483.05,1249.89z M1483.05,1184.21c-16.05,0-19.02,13.97-19.02,24.07c0,10.1,2.97,24.07,19.02,24.07
			s19.02-13.97,19.02-24.07C1502.07,1198.18,1499.1,1184.21,1483.05,1184.21z"/>
		<linearGradient id="SVGID_13_" gradientUnits="userSpaceOnUse" x1="459.0621" y1="1082.5049" x2="1601.9098" y2="1211.6964">
			<stop  offset="0" style="stop-color:#7E00E2"/>
			<stop  offset="1" style="stop-color:#240838"/>
		</linearGradient>
		<path class="st14" d="M1540.85,1168.76h19.91v13.67h0.3c4.31-8.02,9.06-15.75,21.69-15.75c1.34,0,2.67,0.15,4.01,0.3v21.1
			c-1.78-0.3-4.01-0.3-5.94-0.3c-16.2,0-19.17,10.1-19.17,18.87v41.16h-20.8V1168.76z"/>
	</g>
	<g>
		<g>
			<linearGradient id="SVGID_14_" gradientUnits="userSpaceOnUse" x1="929.4226" y1="733.3119" x2="929.4226" y2="1113.0292">
				<stop  offset="0" style="stop-color:#7E00E2"/>
				<stop  offset="1" style="stop-color:#240838"/>
			</linearGradient>
			<path class="st15" d="M1066.24,1055c13.28-0.05,32.51-0.85,48.07-9.97c17.76-10.55,22.75-28.29,22.75-42.73
				c0-11.63-3.88-31.61-27.18-42.15c-15.53-7.22-33.85-7.22-49.38-7.22h-36.96l-23.21-55.47h54.07c11.09,0,56.02-1.1,56.02-48.26
				c0-33.84-26.07-46.6-55.47-46.6h-94.29l-21.96-52.49h-63.16L721.78,1107.5h75.55l31.61-75.01h144.13l31.61,75.01h83.52
				L1066.24,1055z M850.91,975.69l50.9-128.59l50.9,128.59H850.91z"/>
			<linearGradient id="SVGID_15_" gradientUnits="userSpaceOnUse" x1="1207.2443" y1="733.3119" x2="1207.2443" y2="1113.0292">
				<stop  offset="0" style="stop-color:#7E00E2"/>
				<stop  offset="1" style="stop-color:#240838"/>
			</linearGradient>
			<path class="st16" d="M1179.78,1083.86c-13.38,11.77-28.18,19.15-43.52,23.64h141.96l-102.11-244.11
				c-7.08,33.52-31.13,48.23-39.61,52.94c24.41,3.88,38.83,14.42,48.26,23.3c22.2,21.08,26.63,49.93,26.63,69.35
				C1211.39,1030.59,1205.29,1061.11,1179.78,1083.86z"/>
		</g>
	</g>
</g>
</svg>
